<svg width="106" height="94" viewBox="0 0 106 94" fill="none" xmlns="http://www.w3.org/2000/svg">
<path fill-rule="evenodd" clip-rule="evenodd" d="M86.5224 0.30127C85.3429 0.30127 84.3238 1.12567 84.0775 2.27917L78.9884 26.1101H2.52887C1.61644 26.1101 0.77647 26.6072 0.337381 27.4071C-0.101707 28.2069 -0.0701694 29.1824 0.419663 29.9522L19.3079 59.6365C11.4919 61.211 5.61593 68.1082 5.61593 76.392C5.61593 85.8406 13.2604 93.4851 22.709 93.4851C32.1576 93.4851 39.8021 85.8406 39.8021 76.392C39.8021 74.2937 39.425 72.2844 38.735 70.428H47.5549L60.5455 92.2633C61.0506 93.1123 62.0083 93.5843 62.9893 93.4676C63.9703 93.3509 64.7906 92.6674 65.0824 91.7236L72.2121 68.6666C72.3417 68.2474 72.3571 67.8081 72.2654 67.391C74.2824 65.5494 75.6529 62.9986 75.9822 60.1015L82.8021 32.0307C82.852 31.904 82.8922 31.7715 82.9215 31.6339L83.089 30.8498L83.4897 29.2004C83.5345 29.0161 83.5577 28.8292 83.5602 28.6432L88.5449 5.30127H102.887C104.268 5.30127 105.387 4.18198 105.387 2.80127C105.387 1.42056 104.268 0.30127 102.887 0.30127H86.5224ZM7.08283 31.1101H77.8803L71.0844 59.0823C71.0566 59.1964 71.037 59.3124 71.0256 59.4292C70.6919 62.8412 67.8492 65.4244 64.4315 65.428H64.4243H48.9765H48.9721H35.8287C33.1824 62.2639 29.4115 60.0735 25.1273 59.4683L7.08283 31.1101ZM61.967 84.8736L53.3728 70.428L64.4243 70.428L64.4378 70.428H66.4339L61.967 84.8736ZM10.6159 76.392C10.6159 69.7048 16.0218 64.2989 22.709 64.2989C29.3962 64.2989 34.8021 69.7048 34.8021 76.392C34.8021 83.0792 29.3962 88.4851 22.709 88.4851C16.0218 88.4851 10.6159 83.0792 10.6159 76.392ZM38.3236 42.9114C38.3236 44.058 37.3854 44.9961 36.2388 44.9961C35.0922 44.9961 34.1541 44.058 34.1541 42.9114C34.1541 41.7648 35.0922 40.8267 36.2388 40.8267C37.3854 40.8267 38.3236 41.7648 38.3236 42.9114ZM48.0592 52.7096C48.0592 53.8562 47.1211 54.7943 45.9745 54.7943C44.8279 54.7943 43.8898 53.8562 43.8898 52.7096C43.8898 51.563 44.8279 50.6249 45.9745 50.6249C47.1211 50.6249 48.0592 51.563 48.0592 52.7096ZM54.0871 48.0786C55.2337 48.0786 56.1718 47.1405 56.1718 45.9939C56.1718 44.8473 55.2337 43.9092 54.0871 43.9092C52.9405 43.9092 52.0024 44.8473 52.0024 45.9939C52.0024 47.1405 52.9405 48.0786 54.0871 48.0786Z" fill="url(#paint0_linear_619_17)"/>
<defs>
<linearGradient id="paint0_linear_619_17" x1="0.028869" y1="19.9745" x2="86.4658" y2="29.1655" gradientUnits="userSpaceOnUse">
<stop stop-color="#336EED"/>
<stop offset="0.647656" stop-color="#12326F"/>
<stop offset="1" stop-color="#6249D6"/>
</linearGradient>
</defs>
</svg>
