<svg width="89" height="90" viewBox="0 0 89 90" fill="none" xmlns="http://www.w3.org/2000/svg">
<path fill-rule="evenodd" clip-rule="evenodd" d="M6.38926 45.0807C6.38926 24.0327 23.452 6.96997 44.5 6.96997C65.548 6.96997 82.6107 24.0327 82.6107 45.0807C82.6107 66.1287 65.548 83.1915 44.5 83.1915C23.452 83.1915 6.38926 66.1287 6.38926 45.0807ZM44.5 0.969971C20.1383 0.969971 0.389261 20.719 0.389261 45.0807C0.389261 69.4424 20.1383 89.1915 44.5 89.1915C68.8617 89.1915 88.6107 69.4424 88.6107 45.0807C88.6107 20.719 68.8617 0.969971 44.5 0.969971ZM44.5 37.8265C40.4871 37.8265 37.2458 41.0677 37.2458 45.0807C37.2458 49.0936 40.4871 52.3348 44.5 52.3348C48.5129 52.3348 51.7542 49.0936 51.7542 45.0807C51.7542 41.0677 48.5129 37.8265 44.5 37.8265ZM39.2458 45.0807C39.2458 42.1723 41.5916 39.8265 44.5 39.8265C47.4084 39.8265 49.7542 42.1723 49.7542 45.0807C49.7542 47.989 47.4084 50.3348 44.5 50.3348C41.5916 50.3348 39.2458 47.989 39.2458 45.0807ZM33.7428 46.0807H13.2292V44.0807H33.7428V46.0807ZM55.2572 46.0807H75.7709V44.0807H55.2572V46.0807ZM43.5 34.3235V13.8098H45.5V34.3235H43.5ZM43.5 55.8378V76.3515H45.5V55.8378H43.5ZM36.2045 38.1994L21.6948 23.6897L23.109 22.2755L37.6187 36.7852L36.2045 38.1994ZM51.4021 53.397L65.9118 67.9067L67.326 66.4925L52.8163 51.9828L51.4021 53.397ZM51.4021 36.7852L65.9118 22.2755L67.326 23.6897L52.8163 38.1994L51.4021 36.7852ZM36.1837 51.9828L21.674 66.4925L23.0882 67.9067L37.5979 53.397L36.1837 51.9828Z" fill="url(#paint0_linear_619_14)"/>
<defs>
<linearGradient id="paint0_linear_619_14" x1="0.389261" y1="19.5955" x2="72.9435" y2="26.4189" gradientUnits="userSpaceOnUse">
<stop stop-color="#336EED"/>
<stop offset="0.647656" stop-color="#12326F"/>
<stop offset="1" stop-color="#6249D6"/>
</linearGradient>
</defs>
</svg>
