<svg width="82" height="90" viewBox="0 0 82 90" fill="none" xmlns="http://www.w3.org/2000/svg">
<path fill-rule="evenodd" clip-rule="evenodd" d="M5.00616 7.24369C5.00616 6.49787 5.59673 5.95581 6.23161 5.95581H52.8725C53.5162 5.95581 54.0979 6.48608 54.0979 7.24369V20.6459H37.1574C35.5031 18.1262 32.633 16.4834 29.4167 16.4834C24.2649 16.4834 20.0917 20.6566 20.0917 25.8084C20.0917 30.9603 24.2649 35.1334 29.4167 35.1334C32.633 35.1334 35.5031 33.4906 37.1574 30.9709H54.0979V82.918C54.0979 83.6638 53.5073 84.2059 52.8725 84.2059H6.23161C5.58786 84.2059 5.00616 83.6756 5.00616 82.918V7.24369ZM59.0979 30.9709V82.918C59.0979 86.3347 56.3585 89.2059 52.8725 89.2059H6.23161C2.75448 89.2059 0.00616455 86.3645 0.00616455 82.918V7.24369C0.00616455 3.82701 2.74561 0.955811 6.23161 0.955811H52.8725C56.3496 0.955811 59.0979 3.79717 59.0979 7.24369V20.6459H76.12C78.9858 20.6459 81.2825 22.97 81.2825 25.8084C81.2825 27.2421 80.7172 28.5362 79.7825 29.4709C78.8479 30.4055 77.5538 30.9709 76.12 30.9709H59.0979ZM29.4167 18.4834C25.3695 18.4834 22.0917 21.7611 22.0917 25.8084C22.0917 29.8557 25.3695 33.1334 29.4167 33.1334C32.1083 33.1334 34.4855 31.6688 35.727 29.4779L36.0143 28.9709H36.5971H76.12C77.0173 28.9709 77.8044 28.6205 78.3683 28.0567C78.9322 27.4928 79.2825 26.7057 79.2825 25.8084C79.2825 24.0681 77.8747 22.6459 76.12 22.6459H36.5971H36.0143L35.727 22.1389C34.4855 19.948 32.1083 18.4834 29.4167 18.4834ZM29.5416 51.2632C27.4758 51.2632 25.7756 52.9753 25.7756 55.1541C25.7756 55.9815 26.0409 56.7647 26.475 57.3991C26.6081 57.5936 26.6682 57.8288 26.6447 58.0633L25.4435 70.0757H33.6398L32.4385 58.0633C32.4151 57.8288 32.4752 57.5936 32.6083 57.3991C33.0437 56.7628 33.3077 56.0002 33.3077 55.1541C33.3077 52.9753 31.6074 51.2632 29.5416 51.2632ZM23.7756 55.1541C23.7756 51.9217 26.321 49.2632 29.5416 49.2632C32.7622 49.2632 35.3077 51.9217 35.3077 55.1541C35.3077 56.2906 34.9893 57.3283 34.4631 58.2093L35.7398 70.9762C35.7679 71.2573 35.6758 71.5372 35.4862 71.7467C35.2966 71.9562 35.0273 72.0757 34.7448 72.0757H24.3385C24.056 72.0757 23.7866 71.9562 23.597 71.7467C23.4075 71.5372 23.3154 71.2573 23.3435 70.9762L24.6202 58.2088C24.0931 57.3228 23.7756 56.2704 23.7756 55.1541Z" fill="url(#paint0_linear_577_110)"/>
<defs>
<linearGradient id="paint0_linear_577_110" x1="0.00616406" y1="19.5874" x2="66.9377" y2="25.3846" gradientUnits="userSpaceOnUse">
<stop stop-color="#336EED"/>
<stop offset="0.647656" stop-color="#12326F"/>
<stop offset="1" stop-color="#6249D6"/>
</linearGradient>
</defs>
</svg>
