<svg width="73" height="90" viewBox="0 0 73 90" fill="none" xmlns="http://www.w3.org/2000/svg">
<path fill-rule="evenodd" clip-rule="evenodd" d="M0.0131836 3.45581C0.0131836 2.0751 1.13247 0.955811 2.51318 0.955811H70.5077C71.8884 0.955811 73.0077 2.0751 73.0077 3.45581V86.7059C73.0077 88.0866 71.8884 89.2059 70.5077 89.2059H2.51318C1.13247 89.2059 0.0131836 88.0866 0.0131836 86.7059V3.45581ZM5.01318 5.95581V84.2059H68.0077V5.95581H5.01318ZM32.5916 43.0402L43.3056 30.1095L41.7656 28.8334L29.6943 43.4022L28.3371 45.0402H30.4644H40.5755L29.6547 60.1032L31.274 61.2772L43.3452 44.6272L44.4958 43.0402H42.5356H32.5916ZM15.6875 14.9434C15.1352 14.9434 14.6875 15.3911 14.6875 15.9434V74.2184C14.6875 74.7707 15.1352 75.2184 15.6875 75.2184H57.3125C57.8648 75.2184 58.3125 74.7707 58.3125 74.2184V15.9434C58.3125 15.3911 57.8648 14.9434 57.3125 14.9434H15.6875ZM16.6875 73.2184V16.9434H56.3125V73.2184H16.6875Z" fill="url(#paint0_linear_577_143)"/>
<defs>
<linearGradient id="paint0_linear_577_143" x1="0.0131832" y1="19.5874" x2="60.2113" y2="24.2701" gradientUnits="userSpaceOnUse">
<stop stop-color="#336EED"/>
<stop offset="0.647656" stop-color="#12326F"/>
<stop offset="1" stop-color="#6249D6"/>
</linearGradient>
</defs>
</svg>
