<svg width="72" height="87" viewBox="0 0 72 87" fill="none" xmlns="http://www.w3.org/2000/svg">
<path fill-rule="evenodd" clip-rule="evenodd" d="M2.94305 0.672119C1.56234 0.672119 0.443054 1.79141 0.443054 3.17212V84.2505C0.443054 85.6312 1.56234 86.7505 2.94305 86.7505H69.1638C70.5445 86.7505 71.6638 85.6312 71.6638 84.2505V3.17212C71.6638 1.79141 70.5445 0.672119 69.1638 0.672119H2.94305ZM5.44305 22.1377V5.67212H66.6638V22.1377H5.44305ZM5.44305 24.1377V81.7505H66.6638V24.1377H5.44305ZM46.8465 16.8337C47.9614 16.8337 48.8735 15.9216 48.8735 14.8067C48.8735 13.6919 47.9614 12.7798 46.8465 12.7798C45.7317 12.7798 44.8196 13.6919 44.8196 14.8067C44.8196 15.9216 45.7317 16.8337 46.8465 16.8337ZM56.2923 16.8337C57.4071 16.8337 58.3193 15.9216 58.3193 14.8068C58.3193 13.6919 57.4071 12.7798 56.2923 12.7798C55.1775 12.7798 54.2654 13.6919 54.2654 14.8068C54.2654 15.9216 55.1775 16.8337 56.2923 16.8337ZM36.0432 35.9143C27.0801 35.9143 19.8141 43.1803 19.8141 52.1434C19.8141 61.1066 27.0801 68.3726 36.0432 68.3726C45.0063 68.3726 52.2724 61.1066 52.2724 52.1434C52.2724 43.1803 45.0063 35.9143 36.0432 35.9143ZM17.8141 52.1434C17.8141 42.0758 25.9756 33.9143 36.0432 33.9143C46.1109 33.9143 54.2724 42.0758 54.2724 52.1434C54.2724 62.2111 46.1109 70.3726 36.0432 70.3726C25.9756 70.3726 17.8141 62.2111 17.8141 52.1434Z" fill="url(#paint0_linear_577_120)"/>
<defs>
<linearGradient id="paint0_linear_577_120" x1="0.443054" y1="18.8452" x2="59.1781" y2="23.4155" gradientUnits="userSpaceOnUse">
<stop stop-color="#336EED"/>
<stop offset="0.647656" stop-color="#12326F"/>
<stop offset="1" stop-color="#6249D6"/>
</linearGradient>
</defs>
</svg>
